<?xml version="1.0" ?><svg enable-background="new 0 0 32 32" version="1.1" viewBox="0 0 32 32" xml:space="preserve" xmlns="http://www.w3.org/2000/svg" xmlns:xlink="http://www.w3.org/1999/xlink"><g id="_x33_0"/><g id="_x32_9"/><g id="_x32_8"/><g id="_x32_7"/><g id="_x32_6"/><g id="_x32_5"/><g id="_x32_4"/><g id="_x32_3"/><g id="_x32_2"/><g id="_x32_1"/><g id="_x32_0"/><g id="_x31_8"/><g id="_x31_7"/><g id="_x31_6"/><g id="_x31_5"/><g id="_x31_4"/><g id="_x31_3"/><g id="_x31_2"/><g id="_x31_1"/><g id="_x31_0"/><g id="_x39_"/><g id="_x38_"/><g id="_x37_"/><g id="_x36_"/><g id="_x35_"/><g id="_x34_"/><g id="_x33_"/><g id="_x32_"><path d="M23,5H9C7.346,5,6,6.346,6,8v19c0,0.382,0.218,0.73,0.561,0.898c0.344,0.167,0.752,0.126,1.053-0.109L16,21.267   l8.386,6.522C24.565,27.929,24.782,28,25,28c0.149,0,0.3-0.034,0.439-0.102C25.782,27.73,26,27.382,26,27V8C26,6.346,24.654,5,23,5   z M24,24.956l-7.386-5.745C16.434,19.07,16.217,19,16,19s-0.434,0.07-0.614,0.21L8,24.956V8c0-0.551,0.449-1,1-1h14   c0.551,0,1,0.449,1,1V24.956z"/></g><g id="_x31_"/><g id="Guides"/></svg>