<?xml version="1.0" encoding="utf-8"?>
<!-- Svg Vector Icons : http://www.onlinewebfonts.com/icon -->
<!DOCTYPE svg PUBLIC "-//W3C//DTD SVG 1.1//EN" "http://www.w3.org/Graphics/SVG/1.1/DTD/svg11.dtd">
<svg version="1.1" xmlns="http://www.w3.org/2000/svg" xmlns:xlink="http://www.w3.org/1999/xlink" x="0px" y="0px" viewBox="0 0 256 256" enable-background="new 0 0 256 256" xml:space="preserve">
<metadata> Svg Vector Icons : http://www.onlinewebfonts.com/icon </metadata>
<g><g><g><path fill="#000000" d="M123,10.7c-1.4,0.4-3.5,1.2-4.7,1.9C115.2,14.5,17,91.2,15,93.4c-2.1,2.3-3.4,4.8-4.2,8.2c-1.1,4-1.1,125.3,0,129.4c1.9,7.4,7.8,12.9,15.3,14.5c1.6,0.3,10.1,0.5,24.6,0.5c24.2,0,25.5-0.1,29.8-2.6c3-1.8,6.5-5.3,8-7.9c2.6-4.8,2.6-5,2.6-37.9c0-23.7,0.1-30.7,0.6-32.5c2.2-8.2,8.7-14.1,16.9-15.4c3.9-0.6,36.2-0.6,40.1,0c7.9,1.2,14.3,6.7,16.6,14.3c0.8,2.6,0.9,4.7,0.9,32.7c0,17.9,0.2,30.8,0.5,32.3c1.5,8,7.9,14.7,15.7,16.5c1.2,0.3,11,0.5,24.4,0.5c23.9,0,25.2-0.1,29.6-2.3c2.6-1.3,6.7-5.3,8.2-8l1.3-2.3V166V98.7l-1-1.9c-0.6-1.1-1.8-2.8-2.8-3.7c-2-2.1-102-79-104.7-80.5C133.3,10.1,127.7,9.5,123,10.7z"/></g></g></g>
</svg>