<svg xmlns="http://www.w3.org/2000/svg" xmlns:xlink="http://www.w3.org/1999/xlink" version="1.1" x="0px" y="0px" viewBox="0 0 72 90" style="enable-background:new 0 0 72 72;" xml:space="preserve"><title>Untitled-1</title><polygon points="48,33.6 48,38.4 38.4,38.4 38.4,48 33.6,48 33.6,38.4 23.9,38.4 23.9,33.6 33.6,33.6 33.6,23.9 38.4,23.9   38.4,33.6 "/><path d="M48.7,65H23.3C14.3,65,7,57.7,7,48.7V23.3C7,14.3,14.3,7,23.3,7h25.4c9,0,16.3,7.3,16.3,16.3v25.4C65,57.7,57.7,65,48.7,65  C48.7,65,48.7,65,48.7,65z M23.3,11.8c-6.3,0-11.5,5.2-11.5,11.5v25.4c0,6.3,5.2,11.5,11.5,11.5h25.4c6.3,0,11.5-5.2,11.5-11.5V23.3  c0-6.3-5.2-11.5-11.5-11.5L23.3,11.8z"/><text x="0" y="87" fill="#000000" font-size="5px" font-weight="bold" font-family="'Helvetica Neue', Helvetica, Arial-Unicode, Arial, Sans-serif">Created by Sofia Espino-Yaeger</text><text x="0" y="92" fill="#000000" font-size="5px" font-weight="bold" font-family="'Helvetica Neue', Helvetica, Arial-Unicode, Arial, Sans-serif">from the Noun Project</text></svg>