<?xml version="1.0" encoding="utf-8"?>
<!-- Svg Vector Icons : http://www.onlinewebfonts.com/icon -->
<!DOCTYPE svg PUBLIC "-//W3C//DTD SVG 1.1//EN" "http://www.w3.org/Graphics/SVG/1.1/DTD/svg11.dtd">
<svg version="1.1" xmlns="http://www.w3.org/2000/svg" xmlns:xlink="http://www.w3.org/1999/xlink" x="0px" y="0px" viewBox="0 0 256 256" enable-background="new 0 0 256 256" xml:space="preserve">
<metadata> Svg Vector Icons : http://www.onlinewebfonts.com/icon </metadata>
<g><g><g><path fill="#000000" d="M96.1,10.5c-18.4,1.9-36,9.2-50.7,21.1c-4.1,3.3-12.3,11.7-15.2,15.5c-3.9,5-7.8,11.4-10.4,16.6C3.7,96.9,7.6,135,30.2,164.6c2.9,3.9,11.2,12.3,15.2,15.5c34.5,27.8,82.4,28.8,117.6,2.4l5.2-3.9l33.4,33.4c36.3,36.2,34.3,34.5,38.6,33.7c2.2-0.4,5.1-3.4,5.5-5.5c0.8-4.2,2.4-2.3-33.7-38.6l-33.4-33.4l3.9-5.2c26.4-35.2,25.4-83.2-2.4-117.6c-3.3-4.1-11.7-12.3-15.5-15.2C144.7,15,120.4,8,96.1,10.5z M116,25.4c9.6,1.2,17.5,3.6,25.9,7.9c40,20,56.4,68.8,36.5,108.5c-14,27.7-42,45.1-72.6,45.1c-27,0-52.4-13.7-67.6-36.5C18.7,121.3,20.7,82,42.9,54.7c2.7-3.3,9.4-9.9,12.7-12.5C72.2,28.9,95,22.6,116,25.4z"/></g></g></g>
</svg>